<?xml version="1.0" encoding="UTF-8"?>
<svg id="Ebene_2" data-name="Ebene 2" xmlns="http://www.w3.org/2000/svg" viewBox="0 0 2518 638">
  <defs>
    <style>
      .cls-1 {
        fill: #60affd;
      }

      .cls-2 {
        fill: #fff;
      }
    </style>
  </defs>
  <g id="Ebene_1-2" data-name="Ebene 1">
    <g>
      <g>
        <g>
          <path class="cls-2" d="M448.27,305.33c-.6-5.63-1.58-11.23-2.93-16.77v.03c-3.25-13.1-8.46-25.3-15.28-36.32-22.68-36.62-63.1-60.16-107.98-60.19h-130v253.84h130c44.88-.02,85.31-23.55,107.98-60.18,6.82-11.01,12.04-23.2,15.28-36.3,1.35-5.54,2.33-11.14,2.93-16.77.49-4.55.73-9.11.73-13.67s-.24-9.12-.73-13.67ZM422.7,340.3c-.65,3.12-1.45,6.19-2.39,9.2-13.04,41.82-52.14,72.3-98.23,72.3h-105.88v-90.73h26.29c6.72,43.97,47.81,74.17,91.78,67.45,27.96-4.28,51.63-22.9,62.36-49.08h-27.1c-16.8,26.22-51.68,33.85-77.89,17.05-26.22-16.8-33.85-51.67-17.05-77.89,16.8-26.22,51.67-33.85,77.89-17.05,3.41,2.19,6.58,4.74,9.44,7.6,2.87,2.87,5.43,6.03,7.62,9.44h27.1c-16.81-41.17-63.81-60.91-104.98-44.1-26.24,10.71-44.92,34.43-49.17,62.46h-26.29v-90.75h105.88c46.09,0,85.19,30.49,98.2,72.36.94,3.02,1.73,6.08,2.39,9.2.66,3.01,1.14,6.08,1.5,9.19h-69.81c-.45-1.23-.97-2.43-1.57-3.59-.32-.63-.66-1.23-1.02-1.84-.77-1.31-1.63-2.57-2.57-3.76-.85-1.1-1.77-2.14-2.76-3.12-10.69-10.74-27.15-13.21-40.52-6.08-.76.4-1.5.83-2.22,1.32-2.16,1.37-4.15,2.98-5.95,4.8-13.45,13.44-13.47,35.24-.03,48.69l.03.03c1.8,1.82,3.79,3.42,5.95,4.79l2.21,1.32c13.38,7.12,29.83,4.65,40.53-6.07.99-.99,1.91-2.03,2.77-3.12.83-1.06,1.59-2.16,2.29-3.31.46-.75.89-1.52,1.32-2.31.6-1.16,1.13-2.36,1.58-3.59h69.8c-.35,3.11-.86,6.18-1.5,9.19Z"/>
          <path class="cls-2" d="M528.76,243.14c-3.99-11.06-8.85-21.71-14.47-31.88-4.7-8.51-9.95-16.68-15.69-24.46-4.85-6.59-10.06-12.9-15.62-18.91-5.66-6.16-11.69-12.01-18.04-17.5-39.11-33.89-90.13-54.39-145.94-54.39H96v446h223c55.81,0,106.83-20.5,145.94-54.39,6.35-5.49,12.37-11.33,18.04-17.49,5.55-6.01,10.76-12.33,15.62-18.92,5.74-7.78,10.99-15.95,15.69-24.46,5.62-10.17,10.48-20.82,14.47-31.88,8.57-23.68,13.24-49.23,13.24-75.86s-4.67-52.18-13.24-75.86ZM503.52,393.69c-.38.92-.76,1.85-1.15,2.77-4.12,9.75-8.97,19.08-14.53,27.96-4.7,7.51-9.9,14.71-15.58,21.55-3.95,4.75-8.14,9.34-12.55,13.75-1.8,1.8-3.64,3.57-5.5,5.3-17,15.77-36.4,28.32-57.76,37.35-24.52,10.37-50.57,15.63-77.45,15.63H120V120h199c26.88,0,52.93,5.26,77.45,15.63,21.36,9.03,40.75,21.58,57.75,37.36,1.87,1.72,3.7,3.49,5.51,5.3,4.41,4.41,8.6,8.99,12.55,13.74,5.68,6.85,10.88,14.04,15.57,21.56,5.57,8.88,10.42,18.22,14.54,27.96.39.92.77,1.85,1.15,2.77,9.61,23.71,14.48,48.82,14.48,74.68s-4.87,50.98-14.48,74.69Z"/>
          <path class="cls-2" d="M478.29,246.44c-4.37-9.59-9.58-18.71-15.55-27.27-4.21-6.06-8.8-11.84-13.74-17.31-1.41-1.57-2.85-3.11-4.32-4.63-1.7-1.76-3.44-3.48-5.21-5.15-31.37-29.8-73.79-48.08-120.47-48.08h-175v350h175c46.68,0,89.1-18.28,120.47-48.08,1.77-1.67,3.51-3.39,5.21-5.15,1.47-1.52,2.91-3.06,4.32-4.63,4.93-5.46,9.52-11.24,13.74-17.3,5.96-8.57,11.18-17.69,15.55-27.28,10.09-22.1,15.71-46.67,15.71-72.56s-5.62-50.46-15.71-72.56ZM454.49,385.83c-1.7,3.44-3.53,6.81-5.49,10.12-3.73,6.27-7.93,12.3-12.59,18.03-3.32,4.09-6.87,8.03-10.64,11.8-7.66,7.66-15.99,14.39-24.87,20.14-24.18,15.68-52.4,24.08-81.9,24.08h-151V168h151c29.5,0,57.71,8.41,81.89,24.08,8.88,5.76,17.22,12.49,24.88,20.15,3.77,3.77,7.32,7.71,10.64,11.8,4.66,5.73,8.86,11.76,12.59,18.03,1.96,3.3,3.79,6.67,5.49,10.11,10.15,20.52,15.51,43.26,15.51,66.83s-5.36,46.31-15.51,66.83Z"/>
        </g>
        <g>
          <path class="cls-2" d="M1976,0v307h24V24h422V0h-446ZM2072,307h24.7c2.64-22.97,12.87-44.23,29.47-60.83,19.45-19.45,45.32-30.17,72.83-30.17s53.38,10.72,72.83,30.17c19.46,19.46,30.17,45.32,30.17,72.83s-10.71,53.38-30.17,72.84c-19.45,19.45-45.32,30.16-72.83,30.16s-53.38-10.71-72.83-30.16c-16.6-16.6-26.84-37.86-29.47-60.84h-24.13c1.75,18.65,7.62,36.98,17.6,53.52,5.22,8.65,11.56,16.82,19.03,24.29,24.79,24.79,57.3,37.19,89.8,37.19s65-12.39,89.8-37.19c49.6-49.6,49.6-130.01,0-179.61-24.79-24.79-57.3-37.2-89.8-37.2s-65,12.4-89.8,37.2c-4.88,4.88-9.29,10.07-13.2,15.49v-36.11c28.05-26.21,64.42-40.58,103-40.58s78.25,15.71,106.77,44.23,44.23,66.44,44.23,106.77-15.71,78.26-44.23,106.78-66.44,44.22-106.77,44.22-78.25-15.7-106.77-44.22c-3.21-3.21-6.25-6.53-9.13-9.97-7.08-8.44-13.16-17.54-18.16-27.16-9.27-17.78-14.89-37.31-16.47-57.65h-24.06c1.42,20.75,6.51,41.29,15.29,60.57,4.63,10.16,10.28,19.97,16.95,29.27,5.38,7.5,11.42,14.67,18.13,21.42.16.17.32.33.48.49,34.17,34.17,78.95,51.25,123.74,51.25s89.57-17.08,123.74-51.25c68.35-68.35,68.35-179.15,0-247.49-34.17-34.17-78.95-51.26-123.74-51.26-36.21,0-72.41,11.17-103,33.5v-28.83c8.16-4.94,16.68-9.29,25.55-13.04,24.52-10.37,50.57-15.63,77.45-15.63s52.93,5.26,77.45,15.63c23.7,10.02,44.98,24.38,63.26,42.66,18.29,18.28,32.64,39.57,42.66,63.26,10.37,24.52,15.63,50.58,15.63,77.45s-5.26,52.94-15.63,77.46c-10.02,23.69-24.37,44.97-42.66,63.26-18.28,18.28-39.56,32.63-63.26,42.65-24.52,10.37-50.57,15.63-77.45,15.63s-52.93-5.26-77.45-15.63c-20.75-8.78-39.66-20.87-56.32-36.04-2.36-2.14-4.67-4.35-6.94-6.62-3.91-3.91-7.64-7.95-11.19-12.13-6.22-7.33-11.87-15.06-16.94-23.16-5.56-8.88-10.41-18.22-14.53-27.97-.39-.92-.77-1.84-1.15-2.77-8.11-20.02-12.85-41.05-14.12-62.68h-24.04c1.18,22.31,5.65,43.75,12.92,63.85,3.99,11.06,8.85,21.72,14.47,31.89,4.7,8.51,9.95,16.68,15.69,24.47,5.24,7.1,10.89,13.89,16.93,20.32,5.7,6.09,11.75,11.86,18.11,17.27,38.93,33.18,89.41,53.2,144.56,53.2,123.16,0,223-99.84,223-223,0-86.91-49.72-162.2-122.26-199h122.26v-24h-350v211ZM2024,48v259h24V72h374v-24h-398Z"/>
          <g>
            <path class="cls-2" d="M1367.83,253.5c-5.21-8.66-11.56-16.83-19.03-24.3-24.79-24.79-57.3-37.2-89.8-37.2s-65,12.4-89.8,37.2c-6.75,6.75-12.59,14.08-17.49,21.82-9.57,15.05-15.65,31.67-18.24,48.72-1.96,12.76-1.96,25.76,0,38.53,2.59,17.05,8.67,33.67,18.24,48.72,4.9,7.74,10.74,15.07,17.49,21.82,24.79,24.79,57.3,37.19,89.8,37.19s65-12.39,89.8-37.19c7.47-7.47,13.82-15.64,19.03-24.3,12.12-20.08,18.17-42.79,18.17-65.5h0c0-22.72-6.06-45.43-18.17-65.51ZM1331.83,391.84c-19.45,19.45-45.32,30.16-72.83,30.16s-53.38-10.71-72.83-30.16c-15.15-15.15-25-34.18-28.61-54.85-1.03-5.88-1.56-11.89-1.56-17.99s.53-12.11,1.56-17.99c3.61-20.66,13.46-39.69,28.61-54.84,19.45-19.45,45.32-30.17,72.83-30.17s53.38,10.72,72.83,30.17c19.46,19.46,30.17,45.32,30.17,72.83s-10.71,53.38-30.17,72.84Z"/>
            <path class="cls-2" d="M1418.29,246.44c-4.62-10.16-10.27-19.97-16.94-29.27-5.38-7.5-11.42-14.67-18.13-21.43l-.48-.48c-34.17-34.17-78.95-51.26-123.74-51.26s-88.7,16.76-122.74,50.28c-.34.32-.67.65-1,.98-6.33,6.32-12.07,13.01-17.22,20-7.28,9.86-13.4,20.32-18.33,31.18-10.48,22.99-15.71,47.77-15.71,72.56s5.23,49.57,15.71,72.56c4.93,10.86,11.05,21.32,18.33,31.19,5.15,6.98,10.89,13.67,17.22,20,.33.33.66.65.99.98,34.04,33.52,78.39,50.27,122.75,50.27s89.57-17.08,123.74-51.25c.16-.16.32-.32.48-.48,6.71-6.76,12.75-13.93,18.13-21.43,6.67-9.31,12.32-19.12,16.94-29.28,10.48-22.99,15.71-47.77,15.71-72.56s-5.23-49.57-15.71-72.56ZM1393.06,388.66c-5.01,9.61-11.08,18.7-18.16,27.14-2.87,3.44-5.92,6.77-9.13,9.98-28.52,28.52-66.44,44.22-106.77,44.22s-78.25-15.7-106.77-44.22c-2.65-2.65-5.2-5.39-7.63-8.2-7.04-8.15-13.14-16.94-18.22-26.23-12-21.93-18.38-46.65-18.38-72.35s6.38-50.41,18.38-72.34c5.08-9.29,11.18-18.08,18.23-26.23,2.42-2.81,4.97-5.55,7.62-8.2,28.52-28.52,66.44-44.23,106.77-44.23s78.25,15.71,106.77,44.23c3.21,3.21,6.26,6.54,9.13,9.98,7.08,8.44,13.15,17.53,18.16,27.14,11.07,21.25,16.94,45,16.94,69.65s-5.87,48.41-16.94,69.66Z"/>
            <path class="cls-2" d="M1454.29,211.24c-4.64-8.4-9.87-16.57-15.68-24.45-5.18-7.02-10.82-13.8-16.94-20.31-3.09,6.24-6,12.58-8.73,19.02-.69,1.64-1.37,3.28-2.04,4.93,6.23,7.33,11.89,15.05,16.94,23.14,6.06,9.67,11.27,19.87,15.59,30.54.03.07.06.15.09.22,9.61,23.77,14.48,48.9,14.48,74.67,0-26.33,3.75-51.78,10.76-75.85-3.95-10.92-8.77-21.59-14.47-31.91ZM1468.76,243.15c-3.95-10.92-8.77-21.59-14.47-31.91-4.64-8.4-9.87-16.57-15.68-24.45-5.18-7.02-10.82-13.8-16.94-20.31-1.62-1.74-3.29-3.46-4.99-5.16-4.25-4.25-8.62-8.29-13.12-12.12-41.55-35.46-93.07-53.2-144.56-53.2s-101.86,17.34-143.18,52.02c-4.98,4.18-9.82,8.62-14.5,13.3-1.25,1.25-2.48,2.51-3.69,3.78-6.61,6.93-12.69,14.18-18.24,21.69-5.81,7.88-11.04,16.05-15.68,24.45-5.7,10.32-10.52,20.99-14.47,31.91-8.82,24.46-13.24,50.15-13.24,75.85h0c0,25.7,4.41,51.39,13.24,75.85,3.94,10.92,8.76,21.59,14.46,31.91,4.65,8.41,9.88,16.58,15.69,24.46,5.55,7.52,11.63,14.76,18.24,21.69,1.21,1.27,2.44,2.53,3.69,3.78,4.68,4.68,9.52,9.12,14.5,13.3,41.31,34.67,92.26,52.01,143.18,52.01s103.01-17.72,144.57-53.19c4.49-3.83,8.86-7.87,13.11-12.12,1.7-1.7,3.37-3.42,4.99-5.16,6.12-6.51,11.76-13.29,16.94-20.31,5.81-7.88,11.04-16.05,15.69-24.46,5.7-10.32,10.52-20.99,14.46-31.91,8.83-24.46,13.24-50.15,13.24-75.84h0c0-25.71-4.42-51.4-13.24-75.86ZM1443.52,393.68c-.03.07-.06.15-.09.22-4.32,10.66-9.53,20.87-15.59,30.54-5.06,8.09-10.71,15.81-16.94,23.14-3.54,4.18-7.27,8.22-11.19,12.14-2.26,2.26-4.57,4.47-6.93,6.61-36.69,33.39-83.83,51.67-133.78,51.67-25.85,0-51.05-4.9-74.9-14.57-21.13-8.57-40.41-20.59-57.45-35.81-2.85-2.54-5.64-5.18-8.36-7.9-3.42-3.42-6.7-6.94-9.84-10.56-6.76-7.8-12.87-16.05-18.29-24.72-6.06-9.67-11.27-19.88-15.59-30.54-.03-.07-.06-.15-.09-.22-9.61-23.77-14.48-48.9-14.48-74.68s4.87-50.9,14.48-74.67c.03-.07.06-.15.09-.22,4.32-10.67,9.53-20.87,15.59-30.54,5.42-8.67,11.53-16.93,18.29-24.72,3.14-3.62,6.42-7.14,9.84-10.56,2.72-2.72,5.51-5.36,8.36-7.9,36.48-32.58,83.05-50.39,132.35-50.39,25.85,0,51.05,4.91,74.9,14.57,21.72,8.81,41.49,21.27,58.87,37.11,2.36,2.13,4.67,4.34,6.94,6.61,3.92,3.91,7.65,7.96,11.19,12.14,6.23,7.33,11.89,15.05,16.94,23.14,6.06,9.67,11.27,19.87,15.59,30.54.03.07.06.15.09.22,9.61,23.77,14.48,48.9,14.48,74.67s-4.87,50.91-14.48,74.68Z"/>
          </g>
          <g>
            <path class="cls-2" d="M1952,566v24h-280.45l5.07-5.07,20.91-20.91,46.58-46.58,29.09-29.09,62.57-62.57c3.21-3.21,6.26-6.54,9.13-9.98,7.08-8.44,13.15-17.53,18.16-27.14,11.07-21.25,16.94-45,16.94-69.66s-5.87-48.4-16.94-69.65c-5.01-9.61-11.08-18.7-18.16-27.14-2.87-3.44-5.92-6.77-9.13-9.98-28.52-28.52-66.44-44.23-106.77-44.23s-78.25,15.71-106.77,44.23c-3.21,3.21-6.26,6.54-9.13,9.98-7.08,8.44-13.15,17.53-18.16,27.14-11.07,21.25-16.94,45-16.94,69.65s5.87,48.41,16.94,69.66c5.01,9.61,11.08,18.7,18.16,27.14,2.87,3.44,5.92,6.77,9.13,9.98,20.03,20.03,44.7,33.74,71.59,40.12l-19.4,19.41c-25.29-8.27-49.06-22.46-69.16-42.56l-.48-.48c-6.71-6.76-12.75-13.93-18.13-21.43-6.67-9.3-12.32-19.11-16.94-29.27h0c-10.48-23-15.71-47.78-15.71-72.57s5.23-49.57,15.71-72.56h0c4.62-10.17,10.27-19.97,16.94-29.27,5.38-7.5,11.42-14.67,18.13-21.43l.48-.48c34.17-34.17,78.95-51.26,123.74-51.26s89.57,17.09,123.74,51.26l.48.48c6.71,6.76,12.75,13.93,18.13,21.43,6.67,9.3,12.32,19.1,16.94,29.26h0c10.48,23,15.71,47.78,15.71,72.57,0,.43,0,.86-.01,1.29.01.42,0,.85-.01,1.28-.01.85-.03,1.7-.06,2.56-.01.61-.03,1.22-.06,1.84-.04,1.09-.09,2.17-.16,3.26-.02.31-.04.62-.06.94-.01.31-.04.63-.06.94-.02.31-.04.62-.07.94-.01.22-.03.45-.05.67-.02.32-.05.64-.07.96-.09,1.02-.18,2.03-.29,3.05-.04.42-.08.85-.13,1.28-.06.52-.11,1.04-.18,1.56-.07.62-.15,1.25-.23,1.87s-.16,1.25-.25,1.87c-.09.62-.18,1.25-.27,1.87-.08.54-.16,1.08-.25,1.61-.16,1.05-.34,2.09-.53,3.13-.15.84-.3,1.67-.46,2.51-.24,1.2-.48,2.41-.74,3.61-.28,1.29-.57,2.57-.88,3.85-.12.52-.25,1.03-.38,1.55-.12.48-.24.96-.37,1.44-.22.89-.46,1.78-.71,2.66-.14.54-.29,1.08-.45,1.62-.71,2.52-1.48,5.01-2.32,7.5-.12.38-.25.77-.39,1.15-.3.88-.61,1.76-.93,2.64-.26.74-.53,1.47-.81,2.21-.28.73-.56,1.47-.84,2.2h0c-.29.74-.58,1.47-.88,2.19-.45,1.13-.92,2.25-1.4,3.36-.22.51-.45,1.02-.68,1.53-.23.54-.47,1.08-.73,1.62h0c-4.62,10.17-10.27,19.98-16.94,29.28-5.38,7.5-11.42,14.67-18.13,21.43-.16.16-.32.32-.48.48l-123.25,123.25h222.51Z"/>
            <path class="cls-2" d="M1845.37,518h106.63v24h-164.57l75.44-75.44,6.84-6.84c3.92-3.92,7.65-7.96,11.19-12.14,6.23-7.33,11.88-15.05,16.94-23.14,1.46-2.32,2.86-4.66,4.2-7.04.45-.79.9-1.58,1.33-2.37.57-1.03,1.13-2.07,1.68-3.11.77-1.46,1.53-2.93,2.26-4.42.37-.74.73-1.48,1.09-2.23,1.16-2.42,2.28-4.86,3.34-7.34.25-.57.49-1.14.73-1.71.32-.77.64-1.54.96-2.32.03-.07.06-.15.09-.22,9.61-23.77,14.48-48.9,14.48-74.68s-4.87-50.9-14.48-74.67c-.03-.07-.06-.15-.09-.22-4.32-10.67-9.53-20.87-15.59-30.54-5.05-8.09-10.71-15.81-16.94-23.14-3.54-4.18-7.27-8.23-11.19-12.14-2.27-2.27-4.58-4.48-6.94-6.61-17.38-15.84-37.15-28.3-58.87-37.11-23.85-9.66-49.05-14.57-74.9-14.57-49.94,0-97.09,18.28-133.77,51.67-2.36,2.14-4.67,4.35-6.94,6.62-3.92,3.91-7.65,7.96-11.19,12.14-6.23,7.33-11.89,15.05-16.94,23.14-6.06,9.67-11.27,19.87-15.59,30.54-.03.07-.06.15-.09.22-9.61,23.77-14.48,48.9-14.48,74.67s4.87,50.91,14.48,74.68c.03.07.06.15.09.22,4.32,10.66,9.53,20.87,15.59,30.54,5.06,8.09,10.71,15.81,16.94,23.14,3.54,4.18,7.27,8.22,11.19,12.14,2.27,2.27,4.58,4.47,6.93,6.61,17.39,15.83,37.15,28.29,58.88,37.1.52.21,1.05.42,1.57.62l-18.31,18.32c-18.78-8.45-36.63-19.64-52.93-33.56-4.49-3.83-8.87-7.87-13.11-12.12-1.7-1.7-3.37-3.42-4.99-5.16-6.12-6.51-11.76-13.29-16.94-20.31-5.81-7.88-11.04-16.05-15.69-24.46-5.7-10.32-10.52-20.99-14.46-31.91-8.83-24.46-13.24-50.15-13.24-75.84h0c0-25.71,4.42-51.4,13.24-75.86,3.95-10.92,8.77-21.59,14.47-31.91,4.64-8.4,9.87-16.57,15.68-24.45,5.18-7.02,10.82-13.8,16.94-20.31,1.62-1.74,3.29-3.46,4.99-5.16,4.25-4.25,8.63-8.29,13.12-12.12,41.56-35.47,93.05-53.2,144.56-53.2s103.01,17.74,144.56,53.2c4.5,3.83,8.87,7.87,13.12,12.12,1.7,1.7,3.37,3.42,4.99,5.16,6.12,6.51,11.76,13.29,16.94,20.31,5.81,7.88,11.04,16.05,15.68,24.45,5.7,10.32,10.52,20.99,14.47,31.91,8.82,24.46,13.24,50.15,13.24,75.85h0c0,25.7-4.41,51.39-13.24,75.85-3.94,10.92-8.76,21.59-14.46,31.91-4.65,8.41-9.88,16.58-15.69,24.46-5.18,7.02-10.82,13.8-16.94,20.31-1.62,1.74-3.29,3.46-4.99,5.16l-41.31,41.31Z"/>
            <path class="cls-2" d="M1952,614v24h-396.33l32.63-32.63,18.01-18.01,18.23-18.23,18.5-18.5,18.91-18.91,39.83-39.83h.01l21.97-21.98,25.54-25.54,52.53-52.53h0c19.46-19.47,30.17-45.32,30.17-72.84s-10.71-53.37-30.17-72.83c-19.45-19.45-45.32-30.17-72.83-30.17s-53.38,10.72-72.83,30.17c-19.46,19.46-30.17,45.32-30.17,72.83s10.71,53.38,30.17,72.84c19.45,19.45,45.32,30.16,72.83,30.16,3.07,0,6.11-.13,9.13-.4l-23.58,23.57c-27.53-3.12-54.24-15.25-75.35-36.36-7.47-7.47-13.82-15.64-19.03-24.3-12.12-20.08-18.17-42.79-18.17-65.5h0c0-22.72,6.06-45.43,18.17-65.51,5.21-8.66,11.56-16.83,19.03-24.3,24.8-24.8,57.29-37.2,89.8-37.2s65.01,12.41,89.8,37.2c7.47,7.47,13.82,15.64,19.03,24.3,12.11,20.08,18.17,42.79,18.17,65.5h0c0,22.72-6.05,45.43-18.17,65.51-5.21,8.66-11.56,16.83-19.03,24.3l-85.13,85.13-23.21,23.21-21.28,21.28-20.24,20.24-7.33,7.33-1.61,1.61-10.53,10.53-19.01,19.01-16.85,16.85h338.39Z"/>
          </g>
          <g>
            <path class="cls-2" d="M1012,566v24h-280.45l5.07-5.07,20.91-20.91,46.58-46.58,29.09-29.09,62.57-62.57c3.21-3.21,6.26-6.54,9.13-9.98,7.08-8.44,13.15-17.53,18.16-27.14,11.07-21.25,16.94-45,16.94-69.66s-5.87-48.4-16.94-69.65c-5.01-9.61-11.08-18.7-18.16-27.14-2.87-3.44-5.92-6.77-9.13-9.98-28.52-28.52-66.44-44.23-106.77-44.23s-78.25,15.71-106.77,44.23c-3.21,3.21-6.26,6.54-9.13,9.98-7.08,8.44-13.15,17.53-18.16,27.14-11.07,21.25-16.94,45-16.94,69.65s5.87,48.41,16.94,69.66c5.01,9.61,11.08,18.7,18.16,27.14,2.87,3.44,5.92,6.77,9.13,9.98,20.03,20.03,44.7,33.74,71.59,40.12l-19.4,19.41c-25.29-8.27-49.06-22.46-69.16-42.56-.16-.16-.32-.32-.48-.48-6.71-6.76-12.75-13.93-18.13-21.43-6.67-9.3-12.32-19.11-16.94-29.27h0c-10.48-23-15.71-47.78-15.71-72.57s5.23-49.57,15.71-72.56h0c4.62-10.17,10.27-19.97,16.94-29.27,5.38-7.5,11.42-14.67,18.13-21.43l.48-.48c34.17-34.17,78.95-51.26,123.74-51.26s89.57,17.09,123.74,51.26l.48.48c6.71,6.76,12.75,13.93,18.13,21.43,6.67,9.3,12.32,19.1,16.94,29.26h0c10.48,23,15.71,47.78,15.71,72.57,0,.43,0,.86-.01,1.29.01.42,0,.85-.01,1.28-.01.85-.03,1.7-.06,2.56-.01.61-.03,1.22-.06,1.84-.04,1.09-.09,2.17-.16,3.26-.02.31-.04.62-.06.94-.01.31-.04.63-.06.94-.02.31-.04.62-.07.94-.11,1.56-.24,3.12-.41,4.68-.04.42-.08.85-.13,1.28-.06.52-.11,1.04-.18,1.56-.07.62-.15,1.25-.23,1.87-.08.62-.16,1.25-.25,1.87-.09.62-.18,1.25-.27,1.87-.08.54-.16,1.08-.25,1.61-.16,1.05-.34,2.09-.53,3.13-.15.84-.3,1.67-.46,2.51-.24,1.2-.48,2.41-.74,3.61-.28,1.29-.57,2.57-.88,3.85-.12.52-.25,1.03-.38,1.55-.12.48-.24.96-.37,1.44-.22.89-.46,1.77-.71,2.66-.58,2.16-1.22,4.32-1.9,6.46-.28.89-.57,1.78-.87,2.66-.12.38-.25.77-.39,1.15-.3.88-.61,1.76-.93,2.64-.26.74-.53,1.47-.81,2.21-.28.73-.56,1.47-.84,2.2h0c-.29.74-.58,1.47-.88,2.19-.45,1.13-.92,2.25-1.4,3.36-.22.51-.45,1.02-.68,1.53-.23.54-.47,1.08-.73,1.62h0c-4.62,10.17-10.27,19.98-16.94,29.28-5.38,7.5-11.42,14.67-18.13,21.43l-.48.48-123.25,123.25h222.51Z"/>
            <path class="cls-2" d="M905.37,518h106.63v24h-164.57l75.44-75.44,6.84-6.84c3.92-3.92,7.65-7.96,11.19-12.14,6.23-7.33,11.88-15.05,16.94-23.14,6.06-9.67,11.27-19.88,15.59-30.54.03-.07.06-.15.09-.22,9.61-23.77,14.48-48.9,14.48-74.68s-4.87-50.9-14.48-74.67c-.03-.07-.06-.15-.09-.22-4.32-10.67-9.53-20.87-15.59-30.54-5.05-8.09-10.71-15.81-16.94-23.14-3.54-4.18-7.27-8.23-11.19-12.14-2.27-2.27-4.58-4.48-6.94-6.61-17.38-15.84-37.15-28.3-58.87-37.11-23.85-9.66-49.05-14.57-74.9-14.57-49.94,0-97.09,18.28-133.77,51.67-2.36,2.14-4.67,4.35-6.94,6.62-3.92,3.91-7.65,7.96-11.19,12.14-6.23,7.33-11.89,15.05-16.94,23.14-6.06,9.67-11.27,19.87-15.59,30.54-.03.07-.06.15-.09.22-9.61,23.77-14.48,48.9-14.48,74.67s4.87,50.91,14.48,74.68c.03.07.06.15.09.22,4.32,10.66,9.53,20.87,15.59,30.54,5.06,8.09,10.71,15.81,16.94,23.14,3.54,4.18,7.27,8.22,11.19,12.14,2.27,2.27,4.58,4.47,6.93,6.61,17.39,15.83,37.15,28.29,58.88,37.1.52.21,1.05.42,1.57.62l-18.31,18.32c-18.78-8.45-36.63-19.64-52.93-33.56-4.49-3.83-8.87-7.87-13.11-12.12-1.7-1.7-3.37-3.42-4.99-5.16-6.12-6.51-11.76-13.29-16.94-20.31-5.81-7.88-11.04-16.05-15.69-24.46-5.7-10.32-10.52-20.99-14.46-31.91-8.83-24.46-13.24-50.15-13.24-75.84h0c0-25.7,4.41-51.39,13.24-75.84h0c3.94-10.93,8.76-21.6,14.46-31.92,4.65-8.41,9.88-16.58,15.69-24.46,5.18-7.02,10.82-13.8,16.94-20.31,1.62-1.74,3.29-3.46,4.99-5.16,4.25-4.25,8.63-8.29,13.12-12.12,41.56-35.47,93.05-53.2,144.56-53.2s103.01,17.74,144.56,53.2c4.5,3.83,8.87,7.87,13.12,12.12,1.7,1.7,3.37,3.42,4.99,5.16,6.12,6.51,11.76,13.29,16.94,20.31,5.81,7.88,11.04,16.05,15.68,24.45,5.7,10.32,10.52,20.99,14.47,31.91,8.82,24.46,13.24,50.15,13.24,75.85h0c0,25.7-4.41,51.39-13.24,75.85-3.94,10.92-8.76,21.59-14.46,31.91-.03.06-.06.12-.1.17-.55.99-1.1,1.99-1.67,2.97,0,.01-.01.02-.02.04-.6,1.03-1.2,2.06-1.81,3.08-.57.96-1.15,1.92-1.75,2.88-.07.14-.16.28-.26.42-.59.96-1.19,1.92-1.8,2.87-.73,1.15-1.48,2.29-2.24,3.43-.56.83-1.12,1.65-1.68,2.48-.06.09-.13.18-.19.28-.67.96-1.34,1.92-2.02,2.87-.71,1-1.42,1.98-2.15,2.97-5.18,7.02-10.82,13.8-16.94,20.31-1.62,1.74-3.29,3.46-4.99,5.16l-41.31,41.31Z"/>
            <path class="cls-2" d="M1012,614v24h-396.33l32.63-32.63,18.01-18.01,18.23-18.23,18.5-18.5,18.91-18.91,39.83-39.83h0l21.97-21.98,25.54-25.54,52.53-52.53h0c19.46-19.47,30.17-45.32,30.17-72.84s-10.71-53.37-30.17-72.83c-19.45-19.45-45.32-30.17-72.83-30.17s-53.38,10.72-72.83,30.17c-19.46,19.46-30.17,45.32-30.17,72.83s10.71,53.38,30.17,72.84c19.45,19.45,45.32,30.16,72.83,30.16,3.07,0,6.11-.13,9.13-.4l-23.58,23.57c-27.53-3.12-54.24-15.25-75.35-36.36-7.47-7.47-13.82-15.64-19.03-24.3-12.12-20.08-18.17-42.79-18.17-65.5h0c0-22.72,6.06-45.43,18.17-65.51,5.21-8.66,11.56-16.83,19.03-24.3,24.8-24.8,57.29-37.2,89.8-37.2s65.01,12.41,89.8,37.2c7.47,7.47,13.82,15.64,19.03,24.3,12.11,20.08,18.17,42.79,18.17,65.5h0c0,22.72-6.05,45.43-18.17,65.51-5.21,8.66-11.56,16.83-19.03,24.3l-85.13,85.13-23.21,23.21-21.28,21.28-20.24,20.24-7.33,7.33-1.61,1.61-10.53,10.53-19.01,19.01-16.85,16.85h338.39Z"/>
          </g>
        </g>
      </g>
      <g>
        <g>
          <path class="cls-1" d="M1952,0H0v638h581.73l10.47-10.47,13.53-13.53,3.83-3.83c-12.72-7.93-24.92-16.71-36.53-26.3-6.18-5.09-12.19-10.42-18.03-15.96-5.84,5.54-11.85,10.87-18.03,15.96-13.51,11.16-27.8,21.21-42.81,30.13h-53.57c28.89-11.91,55.65-27.95,79.54-47.38,6.21-5.05,12.22-10.32,18.03-15.83,5.47-5.16,10.75-10.52,15.84-16.07,5.42,5.91,11.06,11.6,16.91,17.08,5.83,5.47,11.87,10.72,18.1,15.75,11.77,9.48,24.23,18.14,37.29,25.88l17.53-17.53c-13.74-7.77-26.8-16.62-39.14-26.52-6.22-4.99-12.25-10.24-18.08-15.75-2.1-1.97-4.17-3.99-6.21-6.03-3.68-3.68-7.26-7.45-10.72-11.29-5.51-6.11-10.74-12.42-15.68-18.93-4.94,6.51-10.17,12.82-15.68,18.93-3.46,3.84-7.04,7.61-10.72,11.29-1.67,1.67-3.37,3.33-5.07,4.95-5.81,5.55-11.82,10.83-18.01,15.85-21.45,17.4-45.12,31.61-70.7,42.43-36.35,15.38-74.98,23.17-114.82,23.17H24V24h295c39.83,0,78.46,7.8,114.81,23.18,25.58,10.81,49.26,25.03,70.7,42.43,6.2,5.02,12.2,10.31,18.02,15.86,1.7,1.62,3.39,3.27,5.06,4.94,3.68,3.68,7.26,7.45,10.72,11.29,5.51,6.11,10.75,12.42,15.69,18.93,4.94-6.51,10.17-12.81,15.68-18.92,3.46-3.85,7.03-7.61,10.72-11.3,2.04-2.04,4.11-4.06,6.21-6.03,5.84-5.52,11.87-10.77,18.09-15.76,21.12-16.95,44.39-30.83,69.48-41.44,36.35-15.38,74.98-23.18,114.82-23.18s78.47,7.8,114.82,23.18c25.09,10.61,48.36,24.49,69.48,41.44,6.22,4.99,12.25,10.24,18.09,15.76,2.1,1.97,4.17,3.99,6.21,6.03,3.68,3.68,7.26,7.45,10.71,11.29,5.52,6.11,10.75,12.42,15.69,18.93,4.94-6.51,10.17-12.82,15.69-18.93,3.45-3.84,7.03-7.61,10.71-11.29,2.41-2.41,4.86-4.78,7.34-7.09,5.86-5.49,11.92-10.71,18.17-15.66,20.8-16.51,43.66-30.08,68.27-40.48,36.35-15.38,74.98-23.18,114.82-23.18s78.47,7.8,114.82,23.18c25.09,10.61,48.36,24.49,69.48,41.44,6.22,4.99,12.25,10.24,18.09,15.76,2.1,1.97,4.17,3.99,6.21,6.03,3.68,3.68,7.26,7.45,10.71,11.29,5.52,6.11,10.75,12.42,15.69,18.93,4.94-6.51,10.17-12.82,15.69-18.93,3.45-3.84,7.03-7.61,10.71-11.29,2.04-2.04,4.11-4.06,6.21-6.03,5.84-5.52,11.87-10.77,18.09-15.76,21.12-16.95,44.39-30.83,69.48-41.44,36.35-15.38,74.98-23.18,114.82-23.18s78.47,7.8,114.82,23.18c25.09,10.61,48.36,24.49,69.48,41.44,6.22,4.99,12.25,10.24,18.09,15.76,2.1,1.97,4.17,3.99,6.21,6.03,3.68,3.68,7.26,7.45,10.71,11.29,1.25,1.38,2.48,2.77,3.69,4.17v-34.98c-1.62-1.58-3.25-3.14-4.9-4.69-5.83-5.47-11.88-10.72-18.11-15.75-23.6-19.01-49.97-34.73-78.4-46.45h53.55c14.62,8.68,28.55,18.44,41.75,29.25,2.06,1.68,4.09,3.38,6.11,5.12v-30.88c-1.54-1.17-3.09-2.34-4.65-3.49h4.65V0ZM555,600.06c5.73,4.83,11.62,9.48,17.65,13.94h-35.3c6.03-4.46,11.92-9.11,17.65-13.94ZM572.65,24c-6.03,4.46-11.92,9.11-17.65,13.94-5.73-4.83-11.62-9.48-17.65-13.94h35.3ZM589.01,70.45c-6.23,5.03-12.28,10.28-18.11,15.75-5.85,5.49-11.49,11.18-16.91,17.09-5.08-5.55-10.36-10.91-15.83-16.07-5.81-5.5-11.83-10.78-18.04-15.83-23.89-19.43-50.65-35.47-79.54-47.39h53.56c15.01,8.92,29.31,18.98,42.83,30.13,6.18,5.1,12.19,10.42,18.03,15.97,5.84-5.55,11.85-10.87,18.03-15.97,13.51-11.15,27.81-21.21,42.82-30.13h51.56c-28.43,11.72-54.8,27.44-78.4,46.45ZM1040.65,24c-5.33,3.94-10.55,8.03-15.65,12.26-5.1-4.23-10.32-8.32-15.65-12.26h31.3ZM1060.17,69.53c-6.26,5-12.33,10.22-18.2,15.67-6.23,5.79-12.22,11.82-17.97,18.08-5.42-5.9-11.05-11.6-16.9-17.08-5.83-5.47-11.88-10.72-18.11-15.75-23.6-19.01-49.97-34.73-78.4-46.45h55.55c14.22,8.45,27.8,17.92,40.68,28.37,6.23,5.05,12.29,10.34,18.18,15.84,5.89-5.5,11.95-10.79,18.18-15.84,12.88-10.45,26.45-19.92,40.67-28.37h53.56c-27.97,11.53-53.94,26.93-77.24,45.53ZM1510.65,24c-5.68,4.2-11.23,8.57-16.65,13.1-5.42-4.53-10.97-8.9-16.65-13.1h33.3ZM1529.01,70.45c-6.23,5.03-12.28,10.28-18.11,15.75-5.85,5.48-11.48,11.18-16.9,17.08-5.42-5.9-11.05-11.6-16.9-17.08-5.83-5.47-11.88-10.72-18.11-15.75-23.6-19.01-49.97-34.73-78.4-46.45h53.55c14.62,8.68,28.55,18.44,41.75,29.25,6.2,5.07,12.24,10.37,18.11,15.91,5.87-5.54,11.91-10.84,18.11-15.91,13.19-10.81,27.13-20.57,41.74-29.25h53.56c-28.43,11.72-54.8,27.44-78.4,46.45Z"/>
          <path class="cls-1" d="M1619.33,540.4l-17.8,17.8c-15.02-8.01-29.2-17.4-42.36-28-6.27-5.04-12.3-10.36-18.09-15.94-5.91-5.68-11.56-11.64-16.94-17.84-5.52-6.37-10.75-13-15.66-19.87-5.19-7.24-10.02-14.74-14.48-22.49-4.46,7.75-9.29,15.25-14.48,22.49-4.91,6.87-10.14,13.5-15.66,19.87-5.38,6.2-11.03,12.16-16.94,17.84-5.79,5.58-11.82,10.9-18.09,15.94-46.47,37.41-105.53,59.8-169.83,59.8s-122.28-21.98-168.55-58.78c-6.29-5-12.35-10.27-18.17-15.81-6.34-6.03-12.4-12.37-18.14-18.99-5.52-6.37-10.75-13-15.66-19.87-5.19-7.24-10.02-14.74-14.48-22.49-4.46,7.75-9.29,15.25-14.48,22.49-4.29,6.01-8.83,11.83-13.59,17.45h-32.03c-.07-.12-.14-.24-.22-.36,5.99-6,11.64-12.25,16.94-18.75,5.63-6.89,10.86-14.06,15.68-21.5,5.33-8.19,10.15-16.69,14.47-25.49,2.06-4.19,4-8.44,5.83-12.76,2.76-6.53,5.23-13.14,7.4-19.84,2.17,6.7,4.64,13.31,7.4,19.84,1.83,4.32,3.77,8.57,5.83,12.76,4.32,8.8,9.14,17.3,14.47,25.49,4.82,7.44,10.05,14.61,15.68,21.5,5.31,6.51,10.96,12.77,16.96,18.77.41.41.82.82,1.24,1.22,5.81,5.75,11.87,11.16,18.16,16.26,17.94,14.53,37.73,26.41,59.12,35.46,30.44,12.88,62.78,19.4,96.14,19.4s65.7-6.52,96.14-19.4c21.91-9.27,42.16-21.52,60.45-36.55,6.26-5.14,12.28-10.6,18.07-16.39l.02-.02c5.99-6,11.64-12.25,16.94-18.75,5.63-6.89,10.86-14.06,15.68-21.5,5.33-8.19,10.15-16.69,14.47-25.49,2.06-4.19,4-8.44,5.83-12.76,2.76-6.53,5.23-13.14,7.4-19.84,2.17,6.7,4.64,13.31,7.4,19.84,1.83,4.32,3.77,8.57,5.83,12.76,4.32,8.8,9.14,17.3,14.47,25.49,4.82,7.44,10.05,14.61,15.68,21.5,5.3,6.5,10.95,12.75,16.94,18.75l.02.02c5.79,5.79,11.81,11.25,18.07,16.39,14.46,11.89,30.15,22.03,46.92,30.35Z"/>
          <path class="cls-1" d="M1952,164.97v42.37c-.42.92-.83,1.85-1.23,2.77-4.32-8.8-9.15-17.31-14.47-25.49-4.82-7.43-10.05-14.61-15.68-21.5-5.3-6.5-10.95-12.76-16.94-18.75t-.02-.02c-5.79-5.78-11.82-11.25-18.08-16.39-18.28-15.04-38.53-27.29-60.44-36.56-30.44-12.87-62.78-19.4-96.14-19.4s-65.7,6.53-96.14,19.4c-21.91,9.27-42.16,21.52-60.44,36.56-6.26,5.14-12.29,10.61-18.08,16.39t-.02.02c-5.99,5.99-11.64,12.25-16.94,18.75-5.63,6.89-10.86,14.07-15.68,21.5-5.32,8.18-10.15,16.69-14.47,25.49-2.06,4.18-4,8.44-5.83,12.76-2.76,6.53-5.23,13.14-7.4,19.84-2.17-6.7-4.64-13.31-7.4-19.84-1.83-4.32-3.77-8.58-5.83-12.76-4.32-8.8-9.15-17.31-14.47-25.49-4.82-7.43-10.05-14.61-15.68-21.5-5.3-6.5-10.95-12.76-16.94-18.75t-.02-.02c-5.79-5.78-11.82-11.25-18.08-16.39-18.28-15.04-38.53-27.29-60.44-36.56-30.44-12.87-62.78-19.4-96.14-19.4s-65.7,6.53-96.14,19.4c-21.38,9.04-41.18,20.93-59.11,35.47-6.29,5.1-12.35,10.52-18.17,16.26-.42.4-.83.81-1.24,1.22-6,6-11.66,12.26-16.96,18.77-5.63,6.89-10.86,14.07-15.68,21.5-5.32,8.18-10.15,16.69-14.47,25.49-2.06,4.18-4,8.44-5.83,12.76-2.76,6.53-5.23,13.14-7.4,19.84-2.17-6.7-4.64-13.31-7.4-19.84-1.83-4.32-3.77-8.58-5.83-12.76-4.32-8.8-9.15-17.31-14.47-25.49-4.82-7.43-10.05-14.61-15.68-21.5-5.3-6.5-10.95-12.76-16.94-18.75t-.02-.02c-5.79-5.78-11.82-11.25-18.08-16.39-18.28-15.04-38.53-27.29-60.44-36.56-30.44-12.87-62.78-19.4-96.14-19.4s-65.7,6.53-96.14,19.4c-21.91,9.27-42.16,21.52-60.44,36.56-6.26,5.14-12.29,10.61-18.08,16.39t-.02.02c-5.99,5.99-11.64,12.25-16.94,18.75-5.63,6.89-10.86,14.07-15.68,21.5-5.32,8.18-10.15,16.69-14.47,25.49-2.06,4.18-4,8.44-5.83,12.76-2.76,6.53-5.23,13.14-7.4,19.84-2.17-6.69-4.64-13.31-7.4-19.84-1.83-4.32-3.77-8.58-5.83-12.76-4.32-8.8-9.15-17.31-14.47-25.49-4.82-7.43-10.06-14.61-15.68-21.5-4.93-6.04-10.16-11.87-15.69-17.47-.42-.44-.85-.87-1.28-1.3-5.37-5.37-10.96-10.47-16.74-15.28-18.63-15.55-39.33-28.18-61.78-37.67-30.43-12.87-62.78-19.4-96.13-19.4H72v494h43.36c6.19,5.41,8.02,6.25,1.77,0h201.87c33.36,0,65.7-6.52,96.14-19.4,22.45-9.49,43.15-22.12,61.78-37.65,5.78-4.82,11.37-9.92,16.74-15.29.43-.43.85-.86,1.28-1.29,5.52-5.61,10.75-11.43,15.68-17.48,5.63-6.89,10.86-14.06,15.68-21.5,5.33-8.19,10.15-16.69,14.47-25.49,2.06-4.19,4-8.44,5.83-12.76,2.76-6.53,5.23-13.14,7.4-19.84,2.17,6.7,4.64,13.31,7.4,19.84,1.83,4.32,3.77,8.57,5.83,12.76,4.32,8.8,9.14,17.3,14.47,25.49,4.82,7.44,10.05,14.61,15.68,21.5,5.3,6.5,10.95,12.75,16.94,18.75l.02.02c5.79,5.79,11.81,11.25,18.07,16.39,14.46,11.89,30.15,22.03,46.92,30.35l-17.8,17.8c-15.02-8.01-29.2-17.4-42.36-28-6.27-5.04-12.3-10.36-18.09-15.94-5.91-5.68-11.56-11.64-16.94-17.84-5.52-6.37-10.75-13-15.66-19.87-5.19-7.24-10.02-14.74-14.48-22.49-4.46,7.75-9.29,15.25-14.48,22.49-4.91,6.87-10.14,13.5-15.66,19.87-5.01,5.78-10.26,11.34-15.73,16.69-5.77,5.61-11.78,10.97-18.03,16.05-46.66,38.04-106.21,60.84-171.1,60.84H48V48h271c64.88,0,124.45,22.8,171.1,60.84,6.25,5.09,12.26,10.45,18.02,16.06,5.47,5.34,10.72,10.91,15.73,16.69,5.52,6.37,10.75,13,15.67,19.87,5.18,7.24,10.02,14.74,14.47,22.49,4.46-7.75,9.3-15.25,14.49-22.49,4.9-6.87,10.13-13.5,15.66-19.87,5.37-6.2,11.03-12.16,16.94-17.85,5.79-5.58,11.82-10.9,18.09-15.94,46.47-37.41,105.53-59.8,169.83-59.8s123.36,22.39,169.83,59.8c6.27,5.04,12.3,10.36,18.09,15.94,5.91,5.68,11.56,11.64,16.94,17.84,5.52,6.37,10.75,13,15.66,19.87,5.19,7.24,10.02,14.74,14.48,22.49,4.46-7.75,9.29-15.25,14.48-22.49,4.91-6.87,10.14-13.5,15.66-19.87,5.74-6.62,11.79-12.95,18.13-18.99,5.82-5.53,11.88-10.81,18.18-15.81,46.27-36.8,104.84-58.78,168.55-58.78s123.36,22.39,169.83,59.8c6.27,5.04,12.3,10.36,18.09,15.94,5.91,5.68,11.56,11.64,16.94,17.84,5.52,6.37,10.75,13,15.66,19.87,5.19,7.24,10.02,14.74,14.48,22.49,4.46-7.75,9.29-15.25,14.48-22.49,4.91-6.87,10.14-13.5,15.66-19.87,5.38-6.2,11.03-12.16,16.94-17.84,5.79-5.58,11.82-10.9,18.09-15.94,46.47-37.41,105.53-59.8,169.83-59.8s123.36,22.39,169.83,59.8c6.27,5.04,12.3,10.36,18.09,15.94,5.91,5.68,11.56,11.64,16.94,17.84,5.52,6.37,10.75,13,15.66,19.87.84,1.16,1.67,2.34,2.48,3.52Z"/>
          <path class="cls-1" d="M2470,319c0,149.67-121.33,271-271,271-64.3,0-123.36-22.39-169.83-59.8-6.27-5.04-12.3-10.36-18.09-15.94-5.91-5.68-11.56-11.64-16.94-17.84-5.52-6.37-10.75-13-15.66-19.87-5.19-7.24-10.02-14.74-14.48-22.49-4.46,7.75-9.29,15.25-14.48,22.49-4.29,6.01-8.83,11.83-13.59,17.45h-32.61l.34-.34.02-.02c5.99-6,11.64-12.25,16.94-18.75,5.63-6.89,10.86-14.06,15.68-21.5,5.33-8.19,10.15-16.69,14.47-25.49,2.06-4.19,4-8.44,5.83-12.76,2.76-6.53,5.23-13.14,7.4-19.84,2.17,6.7,4.64,13.31,7.4,19.84,1.83,4.32,3.77,8.57,5.83,12.76,4.32,8.8,9.14,17.3,14.47,25.49,4.82,7.44,10.05,14.61,15.68,21.5,5.3,6.5,10.95,12.75,16.94,18.75l.02.02c5.79,5.79,11.81,11.25,18.07,16.39,18.29,15.03,38.54,27.28,60.45,36.55,30.44,12.88,62.78,19.4,96.14,19.4s65.7-6.52,96.14-19.4c29.41-12.44,55.82-30.25,78.52-52.94,22.69-22.69,40.5-49.11,52.94-78.52,12.87-30.44,19.4-62.78,19.4-96.14s-6.53-65.7-19.4-96.13c-12.44-29.41-30.25-55.83-52.94-78.52-.12-.12-.23-.23-.35-.35h32.62c39.97,47.21,64.07,108.3,64.07,175Z"/>
          <path class="cls-1" d="M1477.09,551.8c5.85-5.48,11.49-11.17,16.91-17.08,5.42,5.91,11.06,11.6,16.91,17.08,5.83,5.47,11.87,10.72,18.1,15.75,11.77,9.48,24.23,18.14,37.29,25.88l17.53-17.53c-13.74-7.77-26.8-16.62-39.14-26.52-6.22-4.99-12.25-10.24-18.08-15.75-2.1-1.97-4.17-3.99-6.21-6.03-3.68-3.68-7.26-7.45-10.72-11.29-5.51-6.11-10.74-12.42-15.68-18.93-4.94,6.51-10.17,12.82-15.68,18.93-3.46,3.84-7.04,7.61-10.72,11.29-2.04,2.04-4.11,4.06-6.21,6.03-5.83,5.51-11.86,10.76-18.08,15.75-21.13,16.95-44.39,30.83-69.49,41.45-36.35,15.38-74.98,23.17-114.82,23.17s-78.47-7.79-114.82-23.17c-24.61-10.41-47.47-23.97-68.27-40.48-6.25-4.95-12.31-10.17-18.17-15.66-2.48-2.31-4.93-4.68-7.34-7.09-3.68-3.68-7.26-7.45-10.72-11.29-1.24-1.38-2.47-2.77-3.68-4.17v34.97c1.97,1.93,3.96,3.83,5.98,5.7,5.86,5.44,11.93,10.67,18.19,15.66,23.3,18.6,49.27,34,77.24,45.53h-53.56c-14.22-8.44-27.79-17.91-40.67-28.37-2.42-1.96-4.81-3.96-7.18-6v30.88c1.54,1.17,3.09,2.34,4.65,3.49h-4.65v24h485.73l27.06-27.06c-12.78-7.9-25.02-16.63-36.68-26.19-6.2-5.07-12.24-10.37-18.11-15.9-5.87,5.53-11.91,10.83-18.11,15.9-13.19,10.81-27.12,20.57-41.73,29.25h-53.57c28.43-11.72,54.8-27.44,78.4-46.45,6.23-5.03,12.27-10.28,18.1-15.75ZM1494,600.9c5.42,4.53,10.97,8.9,16.65,13.1h-33.3c5.68-4.2,11.23-8.57,16.65-13.1Z"/>
        </g>
        <path class="cls-1" d="M2446,0v24h9.65c6.8,5.92,13.41,12.1,19.83,18.52,6.42,6.42,12.6,13.03,18.52,19.83v38.3c-14.25-19.23-30.34-37.01-48-53.09v33.46c18.5,19.17,34.54,40.18,48,62.82v53.55c-12.04-29.19-28.29-56.2-48-80.28v26.89h-9.47c13.75,18.59,25.22,38.72,34.3,60.18,15.37,36.36,23.17,74.99,23.17,114.82s-7.8,78.47-23.17,114.82c-14.86,35.13-36.13,66.68-63.23,93.78-27.1,27.1-58.65,48.37-93.78,63.23-36.35,15.38-74.98,23.17-114.82,23.17s-78.47-7.79-114.82-23.17c-25.1-10.62-48.36-24.5-69.49-41.45-6.22-4.99-12.25-10.24-18.08-15.75-2.1-1.97-4.17-3.99-6.21-6.03-3.68-3.68-7.26-7.45-10.72-11.29-1.24-1.38-2.47-2.77-3.68-4.17v34.97c1.62,1.58,3.26,3.15,4.91,4.69,5.83,5.47,11.87,10.72,18.1,15.75,23.6,19.01,49.97,34.73,78.4,46.45h-53.56c-14.61-8.68-28.55-18.44-41.74-29.25-2.06-1.67-4.09-3.38-6.11-5.12v30.88c1.54,1.17,3.09,2.34,4.65,3.49h-4.65v24h542V0h-72ZM2494,614h-3.12c1.05-1.03,2.09-2.07,3.12-3.12v3.12ZM2494,575.65c-5.92,6.8-12.1,13.41-18.52,19.83-6.43,6.43-13.04,12.6-19.84,18.52h-38.29c29.17-21.62,55.03-47.47,76.65-76.65v38.3ZM2494,494.17c-14.53,24.44-32.08,46.99-52.46,67.37s-42.93,37.93-67.38,52.46h-53.57c78.39-32.33,141.06-95.01,173.41-173.39v53.56ZM2490.88,24h3.12v3.12c-1.03-1.05-2.07-2.09-3.12-3.12Z"/>
      </g>
    </g>
  </g>
</svg>