<?xml version="1.0" encoding="UTF-8"?>
<svg id="Ebene_1" xmlns="http://www.w3.org/2000/svg" viewBox="0 0 296 296"><defs><style>.cls-1{fill:#cd0022;}.cls-1,.cls-2{stroke-width:0px;}.cls-2{fill:#fff;}</style></defs><rect class="cls-2" x="23.02" y="106" width="253.97" height="95.17"/><path class="cls-1" d="m109.08,144.45c1.41,1.57,2.11,3.51,2.11,5.82v.97h-16.82c.33-2.43,1.02-4.4,2.11-5.91,1.55-2.15,3.78-3.23,6.68-3.23,2.55,0,4.52.78,5.93,2.35Zm186.92,3.55c0,81.74-66.26,148-148,148S0,229.74,0,148,66.26,0,148,0s148,66.26,148,148Zm-230.42-21.14h18.54v-11.33H31.93v11.33h18.49v52.62h15.15v-52.62Zm60.07,27.94c0-7.23-2-12.88-6-16.96-4-4.07-9.45-6.11-16.36-6.11s-12.47,2.17-16.96,6.5c-4.48,4.33-6.72,10.1-6.72,17.31v1.41c0,7.26,2.21,13.06,6.63,17.4,4.42,4.33,10.44,6.5,18.05,6.5,4.83,0,9.07-.91,12.72-2.72s6.2-4.23,7.67-7.25l-10.45-6.63c-1.08,1.52-2.48,2.89-4.2,4.11-1.71,1.22-3.73,1.82-6.04,1.82-3.19,0-5.63-1.07-7.31-3.21-1.37-1.74-2.18-4.09-2.43-7.03h31.4v-5.14Zm51.04,24.69l-16.53-24.73,14.02-21.66h-13.49l-7.23,11.6-7.44-11.6h-16.74l14.96,22.22-16.32,24.17h13.49l9.49-14.23,9.09,14.23h16.69Zm29.21-46.39h-8.17v-10.76h-14.54v10.76h-6.5v10.59h6.46v21.22c0,5.48,1.43,9.49,4.28,12.04s6.64,3.82,11.35,3.82c1.43,0,2.77-.13,4.02-.4,1.25-.26,2.19-.57,2.83-.92v-10.28c-.56.23-1.15.44-1.78.62-.63.18-1.27.26-1.91.26-1.26,0-2.28-.39-3.05-1.16-.78-.78-1.16-2.22-1.16-4.33v-20.86h8.17v-10.59Zm54.8,23.06v-12.61h-14.19v-15.86h-14.32v15.86h-14.14v12.61h14.14v15.9h14.32v-15.9h14.19Z"/></svg>