<?xml version="1.0" encoding="UTF-8" standalone="no"?>
<svg
   width="389.40894"
   height="361.15042"
   viewBox="0 0 389.40894 361.15042"
   version="1.1"
   xml:space="preserve"
   style="clip-rule:evenodd;fill-rule:evenodd;stroke-linecap:round;stroke-linejoin:round;stroke-miterlimit:1.5"
   id="svg13"
   sodipodi:docname="comute-logo-web-color.svg"
   inkscape:version="1.4.4 (dcaf3e7d9e, 2026-05-05)"
   xmlns:inkscape="http://www.inkscape.org/namespaces/inkscape"
   xmlns:sodipodi="http://sodipodi.sourceforge.net/DTD/sodipodi-0.dtd"
   xmlns="http://www.w3.org/2000/svg"
   xmlns:svg="http://www.w3.org/2000/svg"
   xmlns:serif="http://www.serif.com/"><defs
   id="defs13" /><sodipodi:namedview
   id="namedview13"
   pagecolor="#ffffff"
   bordercolor="#000000"
   borderopacity="0.25"
   inkscape:showpageshadow="2"
   inkscape:pageopacity="0.0"
   inkscape:pagecheckerboard="0"
   inkscape:deskcolor="#d1d1d1"
   inkscape:zoom="1.4871795"
   inkscape:cx="165.07759"
   inkscape:cy="196.34483"
   inkscape:window-width="2510"
   inkscape:window-height="1371"
   inkscape:window-x="0"
   inkscape:window-y="0"
   inkscape:window-maximized="1"
   inkscape:current-layer="svg13" />
    <g
   id="COMUTE-Logo--color-"
   serif:id="COMUTE Logo (color)"
   transform="matrix(0.345343,0,0,0.345343,-650.57859,-211.93159)">
        <g
   transform="matrix(0.965374,0,0,1.03904,-1733.95,-403.908)"
   id="g3">
            <g
   id="Square-MLU"
   serif:id="Square MLU">
                <clipPath
   id="_clip1">
                    <path
   d="m 4778.57,1457.39 v 522.23 H 3730.21 V 986.267 h 552.04 v 471.123 z"
   id="path1" />
                </clipPath>
                <g
   clip-path="url(#_clip1)"
   id="g2">
                    <path
   d="m 4738.58,1065.09 v 625.2 h -672.91 v -625.2 z m -61.18,56.83 h -550.56 v 511.53 h 550.56 z"
   style="fill:#b1e053"
   id="path2" />
                </g>
            </g>
        </g>
        <g
   transform="matrix(0.965374,0,0,1.03904,-1887.49,-250.365)"
   id="g5">
            <g
   id="Square-UP"
   serif:id="Square UP">
                <clipPath
   id="_clip2">
                    <path
   d="m 4937.63,1370.8 v 461.04 H 3889.26 V 838.493 h 520.88 V 1370.8 Z"
   id="path3" />
                </clipPath>
                <g
   clip-path="url(#_clip2)"
   id="g4">
                    <path
   d="m 4738.58,1065.09 v 625.2 h -672.91 v -625.2 z m -61.18,56.83 h -550.56 v 511.53 h 550.56 z"
   style="fill:#8186a8"
   id="path4" />
                </g>
            </g>
        </g>
        <g
   transform="matrix(0.965374,0,0,1.03904,-2041.03,-96.8215)"
   id="g7">
            <g
   id="Square-FU"
   serif:id="Square FU">
                <clipPath
   id="_clip3">
                    <path
   d="m 5096.68,1282.59 v 427.69 H 4048.31 V 690.718 l 454.39,1.741 v 591.871 z"
   id="path5" />
                </clipPath>
                <g
   clip-path="url(#_clip3)"
   id="g6">
                    <path
   d="m 4738.58,1065.09 v 625.2 h -672.91 v -625.2 z m -61.18,56.83 h -550.56 v 511.53 h 550.56 z"
   id="path6" />
                </g>
            </g>
        </g>
        <g
   id="Vectors">
            <g
   transform="matrix(0.665414,0.275624,-0.275624,0.665414,1116.46,-256.851)"
   id="g9">
                <g
   transform="matrix(3.71439,-1.53855,1.53855,3.71439,314.075,335.782)"
   id="g8">
                    <path
   d="m 545.982,291.808 68.233,4.849 -44.819,51.676 z"
   style="fill:#b1e053"
   id="path7" />
                    <path
   d="m 389.997,389.531 c 0,0 113.504,-47.015 178.997,-74.143"
   style="fill:none;stroke:#b1e053;stroke-width:20.39px"
   id="path8" />
                </g>
            </g>
            <g
   transform="matrix(0.811026,0,0,0.811026,446.572,221.965)"
   id="g11">
                <g
   transform="matrix(3.57038,0,0,3.57038,969.551,-208.151)"
   id="g10">
                    <path
   d="m 518.343,217.922 64.894,-21.632 -21.631,64.895 z"
   style="fill:#8186a8"
   id="path9" />
                    <path
   d="m 389.997,389.531 c 0,0 103.032,-103.033 158.63,-158.63"
   style="fill:none;stroke:#8186a8;stroke-width:20.39px"
   id="path10" />
                </g>
            </g>
            <g
   transform="matrix(0.581539,-0.240881,0.240881,0.581539,703.747,1062.32)"
   id="g13">
                <g
   transform="matrix(4.25012,1.76046,-1.76046,4.25012,1390.21,-1159.5)"
   id="g12">
                    <path
   d="m 419.488,238.394 51.676,-44.818 4.849,68.232 z"
   id="path11" />
                    <path
   d="m 389.997,389.531 c 0,0 38.465,-92.863 62.436,-150.735"
   style="fill:none;stroke:#000000;stroke-width:20.39px"
   id="path12" />
                </g>
            </g>
        </g>
    </g>
</svg>
