<?xml version="1.0" encoding="UTF-8" standalone="no"?>
<!DOCTYPE svg PUBLIC "-//W3C//DTD SVG 1.1//EN" "http://www.w3.org/Graphics/SVG/1.1/DTD/svg11.dtd">
<svg width="100%" height="100%" viewBox="0 0 1800 780" version="1.1" xmlns="http://www.w3.org/2000/svg" xmlns:xlink="http://www.w3.org/1999/xlink" xml:space="preserve" xmlns:serif="http://www.serif.com/" style="fill-rule:evenodd;clip-rule:evenodd;stroke-linecap:round;stroke-linejoin:round;stroke-miterlimit:1.5;">
    <g id="COMUTE-Logo--color-" serif:id="COMUTE Logo (color)" transform="matrix(0.345343,0,0,0.345343,594.697,-18.3549)">
        <g transform="matrix(0.965374,0,0,1.03904,-1733.95,-403.908)">
            <g id="Square-MLU" serif:id="Square MLU">
                <clipPath id="_clip1">
                    <path d="M4778.57,1457.39L4778.57,1979.62L3730.21,1979.62L3730.21,986.267L4282.25,986.267L4282.25,1457.39L4778.57,1457.39Z"/>
                </clipPath>
                <g clip-path="url(#_clip1)">
                    <path d="M4738.58,1065.09L4738.58,1690.29L4065.67,1690.29L4065.67,1065.09L4738.58,1065.09ZM4677.4,1121.92L4126.84,1121.92L4126.84,1633.45L4677.4,1633.45L4677.4,1121.92Z" style="fill:rgb(177,224,83);"/>
                </g>
            </g>
        </g>
        <g transform="matrix(0.965374,0,0,1.03904,-1887.49,-250.365)">
            <g id="Square-UP" serif:id="Square UP">
                <clipPath id="_clip2">
                    <path d="M4937.63,1370.8L4937.63,1831.84L3889.26,1831.84L3889.26,838.493L4410.14,838.493L4410.14,1370.8L4937.63,1370.8Z"/>
                </clipPath>
                <g clip-path="url(#_clip2)">
                    <path d="M4738.58,1065.09L4738.58,1690.29L4065.67,1690.29L4065.67,1065.09L4738.58,1065.09ZM4677.4,1121.92L4126.84,1121.92L4126.84,1633.45L4677.4,1633.45L4677.4,1121.92Z" style="fill:rgb(129,134,168);"/>
                </g>
            </g>
        </g>
        <g transform="matrix(0.965374,0,0,1.03904,-2041.03,-96.8215)">
            <g id="Square-FU" serif:id="Square FU">
                <clipPath id="_clip3">
                    <path d="M5096.68,1282.59L5096.68,1710.28L4048.31,1710.28L4048.31,690.718L4502.7,692.459L4502.7,1284.33L5096.68,1282.59Z"/>
                </clipPath>
                <g clip-path="url(#_clip3)">
                    <path d="M4738.58,1065.09L4738.58,1690.29L4065.67,1690.29L4065.67,1065.09L4738.58,1065.09ZM4677.4,1121.92L4126.84,1121.92L4126.84,1633.45L4677.4,1633.45L4677.4,1121.92Z"/>
                </g>
            </g>
        </g>
        <g id="Vectors">
            <g transform="matrix(0.665414,0.275624,-0.275624,0.665414,1116.46,-256.851)">
                <g transform="matrix(3.71439,-1.53855,1.53855,3.71439,-3476.36,1905.83)">
                    <path d="M1566.45,291.808L1634.69,296.657L1589.87,348.333L1566.45,291.808Z" style="fill:rgb(177,224,83);"/>
                    <path d="M1410.47,389.531C1410.47,389.531 1523.97,342.516 1589.47,315.388" style="fill:none;stroke:rgb(177,224,83);stroke-width:20.39px;"/>
                </g>
            </g>
            <g transform="matrix(0.811026,0,0,0.811026,446.572,221.965)">
                <g transform="matrix(3.57038,-0,-0,3.57038,-2673.92,-208.151)">
                    <path d="M1538.82,217.922L1603.71,196.29L1582.08,261.185L1538.82,217.922Z" style="fill:rgb(129,134,168);"/>
                    <path d="M1410.47,389.531C1410.47,389.531 1513.5,286.498 1569.1,230.901" style="fill:none;stroke:rgb(129,134,168);stroke-width:20.39px;"/>
                </g>
            </g>
            <g transform="matrix(0.581539,-0.240881,0.240881,0.581539,703.747,1062.32)">
                <g transform="matrix(4.25012,1.76046,-1.76046,4.25012,-2946.92,-2956)">
                    <path d="M1439.96,238.394L1491.64,193.576L1496.49,261.808L1439.96,238.394Z"/>
                    <path d="M1410.47,389.531C1410.47,389.531 1448.93,296.668 1472.91,238.796" style="fill:none;stroke:black;stroke-width:20.39px;"/>
                </g>
            </g>
        </g>
        <g id="COMUTE" transform="matrix(0.893154,0,0,0.971616,-2743.6,-251.169)">
            <g id="Typo--Vector-" serif:id="Typo (Vector)">
                <g id="COMUTE1" serif:id="COMUTE">
                    <path d="M2112.59,1704.88C2077.6,1704.88 2045.41,1699.3 2016.02,1688.15C1986.63,1676.57 1961.21,1660.49 1939.75,1639.91C1918.29,1618.89 1901.49,1594.24 1889.37,1565.93C1877.7,1537.63 1871.87,1506.75 1871.87,1473.3C1871.87,1440.28 1877.7,1410.05 1889.37,1382.6C1901.49,1354.73 1918.52,1330.5 1940.45,1309.91C1962.37,1288.9 1987.8,1272.82 2016.72,1261.67C2045.65,1250.52 2077.37,1244.95 2111.89,1244.95C2134.75,1244.95 2157.38,1248.38 2179.77,1255.24C2202.16,1261.67 2222.69,1270.68 2241.35,1282.26C2260.47,1293.83 2276.1,1307.13 2288.23,1322.14L2250.45,1358.16C2238.78,1345.29 2225.25,1334.14 2209.86,1324.71C2194.93,1315.28 2179.07,1307.99 2162.27,1302.84C2145.48,1297.69 2128.68,1295.12 2111.89,1295.12C2085.77,1295.12 2061.27,1299.62 2038.41,1308.63C2016.02,1317.2 1996.66,1329.43 1980.34,1345.29C1964.01,1361.16 1951.18,1380.03 1941.85,1401.9C1932.98,1423.77 1928.55,1447.57 1928.55,1473.3C1928.55,1499.89 1932.98,1524.33 1941.85,1546.63C1951.18,1568.93 1964.24,1588.23 1981.03,1604.53C1998.3,1620.39 2018.36,1632.83 2041.21,1641.84C2064.54,1650.41 2090.43,1654.7 2118.89,1654.7C2135.68,1654.7 2152.48,1652.56 2169.27,1648.27C2186.07,1643.55 2201.46,1637.12 2215.46,1628.97C2229.45,1620.82 2241.35,1611.6 2251.14,1601.31L2279.14,1643.12C2268.41,1655.13 2253.94,1665.85 2235.75,1675.29C2218.02,1684.29 2198.43,1691.58 2176.97,1697.16C2155.51,1702.3 2134.05,1704.88 2112.59,1704.88Z" style="fill:rgb(75,75,75);fill-rule:nonzero;"/>
                    <path d="M2584.93,1704.88C2550.41,1704.88 2518.46,1699.3 2489.07,1688.15C2460.14,1676.57 2434.72,1660.49 2412.79,1639.91C2391.33,1619.32 2374.54,1595.09 2362.41,1567.22C2350.74,1538.91 2344.91,1508.04 2344.91,1474.59C2344.91,1441.14 2350.74,1410.48 2362.41,1382.6C2374.54,1354.3 2391.33,1329.86 2412.79,1309.27C2434.72,1288.26 2460.14,1272.18 2489.07,1261.03C2518.46,1249.45 2550.41,1243.66 2584.93,1243.66C2619.92,1243.66 2651.88,1249.45 2680.8,1261.03C2710.19,1272.18 2735.62,1288.26 2757.08,1309.27C2779,1329.86 2795.8,1354.3 2807.46,1382.6C2819.59,1410.48 2825.65,1441.14 2825.65,1474.59C2825.65,1507.61 2819.59,1538.27 2807.46,1566.58C2795.8,1594.45 2779,1618.89 2757.08,1639.91C2735.62,1660.49 2710.19,1676.57 2680.8,1688.15C2651.88,1699.3 2619.92,1704.88 2584.93,1704.88ZM2584.93,1655.34C2611.53,1655.34 2636.02,1651.06 2658.41,1642.48C2681.27,1633.47 2700.86,1620.82 2717.19,1604.53C2733.52,1588.23 2746.11,1569.15 2754.98,1547.28C2764.31,1524.98 2768.97,1500.75 2768.97,1474.59C2768.97,1448 2764.31,1423.77 2754.98,1401.9C2746.11,1379.6 2733.52,1360.3 2717.19,1344.01C2700.86,1327.71 2681.27,1315.06 2658.41,1306.06C2636.02,1297.05 2611.53,1292.55 2584.93,1292.55C2558.34,1292.55 2533.62,1297.05 2510.76,1306.06C2488.37,1315.06 2469.01,1327.71 2452.68,1344.01C2436.35,1360.3 2423.75,1379.6 2414.89,1401.9C2406.03,1423.77 2401.6,1448 2401.6,1474.59C2401.6,1500.75 2406.03,1524.98 2414.89,1547.28C2423.75,1569.15 2436.35,1588.23 2452.68,1604.53C2469.01,1620.82 2488.37,1633.47 2510.76,1642.48C2533.62,1651.06 2558.34,1655.34 2584.93,1655.34Z" style="fill:rgb(75,75,75);fill-rule:nonzero;"/>
                    <path d="M2932.02,1698.44L2932.02,1248.16L2985.2,1248.16L3173.44,1529.27L3148.25,1528.62L3338.58,1248.16L3388.27,1248.16L3388.27,1698.44L3333.68,1698.44L3333.68,1492.6C3333.68,1454.01 3334.38,1419.27 3335.78,1388.39C3337.18,1357.52 3339.75,1326.85 3343.48,1296.41L3353.28,1314.42L3177.64,1567.86L3139.85,1567.86L2969.11,1317.63L2976.8,1296.41C2980.53,1325.14 2983.1,1354.73 2984.5,1385.18C2985.9,1415.19 2986.6,1451 2986.6,1492.6L2986.6,1698.44L2932.02,1698.44Z" style="fill:rgb(75,75,75);fill-rule:nonzero;"/>
                    <path d="M3720.66,1702.95C3683.8,1702.95 3650.91,1695.44 3621.99,1680.43C3593.07,1664.99 3570.21,1643.98 3553.41,1617.39C3537.08,1590.38 3528.92,1559.93 3528.92,1526.05L3528.92,1248.16L3583.5,1248.16L3583.5,1520.26C3583.5,1545.56 3589.57,1568.29 3601.7,1588.45C3613.83,1608.6 3630.15,1624.47 3650.68,1636.05C3671.67,1647.62 3695,1653.41 3720.66,1653.41C3747.71,1653.41 3771.74,1647.62 3792.73,1636.05C3814.19,1624.47 3830.99,1608.6 3843.12,1588.45C3855.24,1568.29 3861.31,1545.56 3861.31,1520.26L3861.31,1248.16L3913.79,1248.16L3913.79,1526.05C3913.79,1559.93 3905.39,1590.38 3888.6,1617.39C3872.27,1643.98 3849.41,1664.99 3820.02,1680.43C3791.1,1695.44 3757.98,1702.95 3720.66,1702.95Z" style="fill:rgb(75,75,75);fill-rule:nonzero;"/>
                    <path d="M4144.02,1698.44L4144.02,1297.05L4004.06,1297.05L4004.06,1248.16L4344.15,1248.16L4344.15,1297.05L4198.6,1297.05L4198.6,1698.44L4144.02,1698.44Z" style="fill:rgb(75,75,75);fill-rule:nonzero;"/>
                    <path d="M4436.52,1698.44L4436.52,1248.16L4733.22,1248.16L4733.22,1297.05L4491.1,1297.05L4491.1,1649.56L4731.82,1649.56L4731.82,1698.44L4436.52,1698.44ZM4461.71,1491.31L4461.71,1442.43L4694.03,1442.43L4694.03,1491.31L4461.71,1491.31Z" style="fill:rgb(75,75,75);fill-rule:nonzero;"/>
                </g>
            </g>
        </g>
    </g>
</svg>
