<?xml version="1.0"?>
<svg xmlns="http://www.w3.org/2000/svg" id="f-logo" version="1.1" viewBox="0 0 775 187.5" x="0" y="0">
  <defs>
    <style> #f-logo { width: 100%; display: block; } .z-index-100 { z-index: 100; } .rectangle {
      opacity: 1; display: block; } #f-sign { display: block; width: 100%; } </style>
    <g id="f-sign">
      <g>
        <polygon points="75 25 156.3 25 156.3 43.8 100 43.8 100 87.5 75 87.5 75 25"/>
        <polygon points="100 87.5 150 87.5 150 106.3 100 106.3 100 87.5"/>
        <polygon points="50 112.5 75 112.5 75 162.5 50 162.5 50 112.5"/>
      </g>
      <g>
        <path d="M200,139.33v-26.83h11.3v27.99c0,9.79,3.08,13.17,8.68,13.17s8.86-3.38,8.86-13.17v-27.99h10.9v26.83c0,16.79-6.82,24.09-19.76,24.09s-19.98-7.3-19.98-24.09Z"/>
        <path d="M250.15,112.5h11.58l13.05,24.87,4.95,10.98h.31c-.53-5.29-1.44-12.29-1.44-18.19v-17.66h10.77v50h-11.58l-13.05-24.93-4.95-10.92h-.31c.53,5.51,1.44,12.21,1.44,18.11v17.75h-10.77v-50Z"/>
        <path d="M300.62,112.5h11.3v50h-11.3v-50Z"/>
        <path d="M317.65,112.5h11.96l6.03,23.3c1.49,5.47,2.49,10.51,4.01,16.03h.31c1.52-5.52,2.58-10.56,4.01-16.03l5.9-23.3h11.56l-15.08,50h-13.58l-15.11-50Z"/>
        <path d="M366.98,112.5h31.33v9.48h-20.02v10.04h17.05v9.48h-17.05v11.52h20.79v9.48h-32.1v-50Z"/>
        <path d="M448.51,162.5l-11.32-20.01c5.34-2.41,8.91-7.07,8.91-14.42,0-11.89-8.69-15.57-19.3-15.57h-18.01v50h11.3v-17.99h6.22l9.55,17.99h12.65Zm-28.41-41.03h5.78c5.95,0,9.14,1.65,9.14,6.6s-3.19,7.46-9.14,7.46h-5.78v-14.06Z"/>
        <path d="M451.9,156.19l6.49-7.76c3.56,3.09,8.17,5.22,12.28,5.22,4.72,0,7.03-1.86,7.03-4.83,0-3.15-2.84-4.16-7.21-5.95l-6.5-2.77c-5.18-2.11-10.09-6.36-10.09-13.63,0-8.29,7.4-14.9,17.81-14.9,5.76,0,11.78,2.27,16.08,6.55l-5.71,7.12c-3.29-2.53-6.43-3.92-10.38-3.92s-6.38,1.62-6.38,4.48c0,3.07,3.27,4.18,7.64,5.92l6.37,2.58c6.1,2.47,9.92,6.54,9.92,13.6,0,8.3-6.92,15.5-18.84,15.5-6.51,0-13.42-2.46-18.52-7.23Z"/>
        <path d="M498.17,112.5h11.3v50h-11.3v-50Z"/>
        <path d="M530.97,121.98h-13.76v-9.48h38.83v9.48h-13.76v40.52h-11.3v-40.52Z"/>
        <g>
          <path d="M584.47,108.8c3.15,0,5.36-2.31,5.36-5.36s-2.21-5.36-5.36-5.36-5.36,2.31-5.36,5.36,2.21,5.36,5.36,5.36Z"/>
          <path d="M586.73,162.5h11.96l-15.7-50h-13.53l-15.7,50h11.56l3.09-11.91h15.25l3.08,11.91Zm-16.04-20.7l1.2-4.63c1.39-5,2.72-10.85,3.93-16.13h.31c1.33,5.22,2.67,11.13,4.06,16.13l1.2,4.63h-10.7Z"/>
          <path d="M567.47,108.8c3.15,0,5.36-2.31,5.36-5.36s-2.21-5.36-5.36-5.36-5.36,2.31-5.36,5.36,2.21,5.36,5.36,5.36Z"/>
        </g>
        <path d="M609.68,121.98h-13.76v-9.48h38.83v9.48h-13.76v40.52h-11.3v-40.52Z"/>
      </g>
      <g>
        <path d="M200,25h31.55v9.48h-20.25v11.59h17.3v9.48h-17.3v19.45h-11.3V25Z"/>
        <path d="M280.3,75l-11.32-20.01c5.34-2.41,8.91-7.07,8.91-14.42,0-11.89-8.69-15.57-19.3-15.57h-18.01v50h11.3v-17.99h6.22l9.55,17.99h12.65Zm-28.41-41.03h5.78c5.95,0,9.14,1.65,9.14,6.6s-3.19,7.46-9.14,7.46h-5.78v-14.06Z"/>
        <path d="M287.99,25h31.33v9.48h-20.02v10.04h17.05v9.48h-17.05v11.52h20.79v9.48h-32.1V25Z"/>
        <path d="M330.41,25h11.3v50h-11.3V25Z"/>
        <path d="M353.12,25h31.33v9.48h-20.02v10.04h17.05v9.48h-17.05v11.52h20.79v9.48h-32.1V25Z"/>
      </g>
    </g>
  </defs>
  <g id="f-rects"><rect x="293.75" y="75" width="200" height="100" class="rectangle" style="fill: #CCFF00;"/><rect x="437.5" y="150" width="150" height="150" class="rectangle" style="fill: #CCFF00;"/><rect x="50" y="150" width="150" height="150" class="rectangle" style="fill: #CCFF00;"/><rect x="681.25" y="75" width="200" height="100" class="rectangle" style="fill: #CCFF00;"/><rect x="487.5" y="187.5" width="200" height="100" class="rectangle" style="fill: #CCFF00;"/><rect x="50" y="262.5" width="150" height="150" class="rectangle" style="fill: #CCFF00;"/><rect x="293.75" y="187.5" width="200" height="100" class="rectangle" style="fill: #CCFF00;"/><rect x="487.5" y="187.5" width="200" height="100" class="rectangle" style="fill: #CCFF00;"/><rect x="100" y="187.5" width="200" height="100" class="rectangle" style="fill: #CCFF00;"/><rect x="193.75" y="112.5" width="300" height="75" class="rectangle" style="fill: #CCFF00;"/><rect x="387.5" y="112.5" width="300" height="75" class="rectangle" style="fill: #CCFF00;"/><rect x="0" y="112.5" width="300" height="75" class="rectangle" style="fill: #CCFF00;"/><rect x="193.75" y="112.5" width="300" height="75" class="rectangle" style="fill: #CCFF00;"/><rect x="487.5" y="187.5" width="200" height="100" class="rectangle" style="fill: #CCFF00;"/><rect x="0" y="112.5" width="300" height="75" class="rectangle" style="fill: #CCFF00;"/><rect x="243.75" y="262.5" width="150" height="150" class="rectangle" style="fill: #CCFF00;"/></g>
  <use x="0" href="#f-sign" y="0"/>
</svg>
